<?xml version="1.0" encoding="UTF-8" standalone="no"?><!DOCTYPE svg PUBLIC "-//W3C//DTD SVG 1.1//EN" "http://www.w3.org/Graphics/SVG/1.1/DTD/svg11.dtd"><svg width="100%" height="100%" viewBox="0 0 810 810" version="1.1" xmlns="http://www.w3.org/2000/svg" xmlns:xlink="http://www.w3.org/1999/xlink" xml:space="preserve" xmlns:serif="http://www.serif.com/" style="fill-rule:evenodd;clip-rule:evenodd;stroke-linejoin:round;stroke-miterlimit:1.41421;"><rect id="Bounding-Square" serif:id="Bounding Square" x="0" y="0" width="810" height="810" style="fill:#808080;fill-opacity:0;"/><circle id="Blue" cx="404.9" cy="532.201" r="231.4" style="fill:#00f;"/><path id="Green" d="M439.466,72.404c110.599,-63.856 252.236,-25.907 316.092,84.693c63.857,110.599 25.907,252.236 -84.692,316.092c-110.6,63.857 -252.236,25.907 -316.093,-84.692c-63.856,-110.6 -25.907,-252.236 84.693,-316.093Z" style="fill:#0f0;"/><path id="Red" d="M54.141,157.1c63.856,-110.6 205.493,-148.549 316.092,-84.692c110.6,63.856 148.549,205.492 84.693,316.092c-63.857,110.6 -205.493,148.549 -316.093,84.692c-110.599,-63.856 -148.549,-205.492 -84.692,-316.092Z" style="fill:#f00;"/><path id="Gradient" d="M404.998,98.832c10.587,-9.029 22.14,-17.223 34.618,-24.428c110.6,-63.856 252.236,-25.907 316.093,84.693c63.856,110.599 25.907,252.236 -84.693,316.092c-12.465,7.197 -25.324,13.101 -38.423,17.753c2.534,13.703 3.857,27.828 3.857,42.259c0,127.714 -103.686,231.4 -231.4,231.4c-127.713,0 -231.4,-103.686 -231.4,-231.4c0,-14.418 1.322,-28.53 3.851,-42.222c-13.131,-4.657 -26.022,-10.572 -38.517,-17.787c-110.6,-63.856 -148.549,-205.492 -84.693,-316.092c63.857,-110.6 205.493,-148.549 316.093,-84.692c12.476,7.203 24.028,15.397 34.614,24.424Z" style="fill:url(#_Radial1);"/><path d="M404.9,768.601c-63.1,0 -122.5,-24.6 -167.2,-69.2c-44.6,-44.6 -69.2,-104 -69.2,-167.2c0,-63.2 24.6,-122.5 69.2,-167.2c44.6,-44.6 104,-69.2 167.2,-69.2c63.1,0 122.5,24.6 167.2,69.2c44.6,44.6 69.2,104 69.2,167.2c0,63.2 -24.6,122.5 -69.2,167.2c-44.7,44.6 -104.1,69.2 -167.2,69.2Zm0,-462.8c-60.5,0 -117.3,23.5 -160.1,66.3c-42.8,42.8 -66.3,99.6 -66.3,160.1c0,60.5 23.5,117.3 66.3,160.1c42.7,42.8 99.6,66.3 160.1,66.3c60.5,0 117.3,-23.5 160.1,-66.3c42.8,-42.8 66.3,-99.6 66.3,-160.1c0,-60.5 -23.5,-117.3 -66.3,-160.1c-42.8,-42.7 -99.7,-66.3 -160.1,-66.3Z" style="fill-rule:nonzero;"/><path d="M555.6,508.301c-20.5,0 -41.2,-2.7 -61.6,-8.2c-61,-16.3 -112,-55.5 -143.5,-110.1c-31.5,-54.6 -40,-118.4 -23.6,-179.4c16.4,-61 55.5,-112 110.1,-143.5c54.7,-31.6 118.4,-40 179.4,-23.6c61,16.3 112,55.5 143.5,110.1c31.5,54.6 40,118.4 23.6,179.4c-16.3,61 -55.5,112 -110.1,143.5c-36.4,21 -76.8,31.8 -117.8,31.8Zm-0.8,-463c-39.2,0 -77.9,10.3 -112.8,30.4c-52.4,30.2 -89.8,79.1 -105.5,137.5c-15.6,58.4 -7.6,119.4 22.7,171.8c30.2,52.4 79.1,89.8 137.5,105.5c19.5,5.2 39.3,7.8 59,7.8c39.2,0 77.9,-10.3 112.8,-30.4c52.4,-30.2 89.8,-79.1 105.5,-137.5c15.7,-58.4 7.6,-119.4 -22.6,-171.8c-30.2,-52.4 -79.1,-89.8 -137.5,-105.5c-19.6,-5.2 -39.4,-7.8 -59.1,-7.8Z" style="fill-rule:nonzero;"/><path d="M254.2,508.301c-41,0 -81.4,-10.7 -117.8,-31.8c-54.7,-31.6 -93.8,-82.5 -110.1,-143.5c-16.3,-61 -8,-124.7 23.6,-179.4l4.3,2.5l-4.3,-2.5c31.6,-54.7 82.5,-93.8 143.5,-110.1c61,-16.3 124.7,-8 179.4,23.6c54.7,31.6 93.8,82.5 110.1,143.5c16.3,61 8,124.7 -23.6,179.4c-31.6,54.7 -82.5,93.8 -143.5,110.1c-20.4,5.5 -41.1,8.2 -61.6,8.2Zm0.7,-463c-19.7,0 -39.5,2.6 -59,7.8c-58.4,15.7 -107.2,53.1 -137.5,105.5c-30.3,52.4 -38.2,113.4 -22.5,171.8c15.7,58.4 53.1,107.2 105.5,137.5c52.4,30.2 113.4,38.3 171.8,22.6c58.4,-15.7 107.2,-53.1 137.5,-105.5c30.3,-52.4 38.3,-113.4 22.6,-171.8c-15.7,-58.4 -53.1,-107.2 -105.5,-137.5c-34.9,-20.1 -73.6,-30.4 -112.9,-30.4Z" style="fill-rule:nonzero;"/><defs><radialGradient id="_Radial1" cx="0" cy="0" r="1" gradientUnits="userSpaceOnUse" gradientTransform="matrix(381.715,0,0,361.601,405,405)"><stop offset="0" style="stop-color:#fff;stop-opacity:0"/><stop offset="1" style="stop-color:#000;stop-opacity:0.403922"/></radialGradient></defs></svg>